<svg width="14" height="14" viewBox="0 0 14 14" fill="none" xmlns="http://www.w3.org/2000/svg">
    <path d="M6.9987 6.3335C6.82189 6.3335 6.65232 6.40373 6.5273 6.52876C6.40227 6.65378 6.33203 6.82335 6.33203 7.00016V9.66683C6.33203 9.84364 6.40227 10.0132 6.5273 10.1382C6.65232 10.2633 6.82189 10.3335 6.9987 10.3335C7.17551 10.3335 7.34508 10.2633 7.47011 10.1382C7.59513 10.0132 7.66537 9.84364 7.66537 9.66683V7.00016C7.66537 6.82335 7.59513 6.65378 7.47011 6.52876C7.34508 6.40373 7.17551 6.3335 6.9987 6.3335ZM7.25203 3.72016C7.08973 3.65348 6.90767 3.65348 6.74537 3.72016C6.66353 3.75189 6.58877 3.79947 6.52537 3.86016C6.46648 3.92496 6.41913 3.99937 6.38537 4.08016C6.34805 4.15928 6.32978 4.24605 6.33203 4.3335C6.33153 4.42123 6.34834 4.50821 6.38152 4.58943C6.4147 4.67066 6.46358 4.74454 6.52537 4.80683C6.59017 4.86572 6.66458 4.91307 6.74537 4.94683C6.84637 4.98832 6.95601 5.00437 7.06467 4.99357C7.17332 4.98277 7.27766 4.94544 7.36851 4.88488C7.45936 4.82431 7.53395 4.74235 7.58571 4.64621C7.63747 4.55007 7.66482 4.44268 7.66537 4.3335C7.66291 4.15698 7.59386 3.98792 7.47203 3.86016C7.40863 3.79947 7.33387 3.75189 7.25203 3.72016ZM6.9987 0.333496C5.68016 0.333496 4.39123 0.724489 3.2949 1.45703C2.19857 2.18957 1.34409 3.23077 0.839504 4.44894C0.33492 5.66711 0.202898 7.00756 0.460132 8.30076C0.717367 9.59397 1.35231 10.7819 2.28466 11.7142C3.21701 12.6466 4.40489 13.2815 5.6981 13.5387C6.99131 13.796 8.33175 13.6639 9.54992 13.1594C10.7681 12.6548 11.8093 11.8003 12.5418 10.704C13.2744 9.60764 13.6654 8.31871 13.6654 7.00016C13.6654 6.12468 13.4929 5.25778 13.1579 4.44894C12.8229 3.6401 12.3318 2.90517 11.7127 2.28612C11.0937 1.66706 10.3588 1.176 9.54992 0.840966C8.74109 0.505935 7.87418 0.333496 6.9987 0.333496V0.333496ZM6.9987 12.3335C5.94387 12.3335 4.91272 12.0207 4.03566 11.4347C3.1586 10.8486 2.47501 10.0157 2.07134 9.04114C1.66768 8.0666 1.56206 6.99425 1.76785 5.95968C1.97363 4.92512 2.48158 3.97481 3.22746 3.22893C3.97334 2.48305 4.92365 1.9751 5.95822 1.76931C6.99278 1.56352 8.06514 1.66914 9.03968 2.07281C10.0142 2.47647 10.8472 3.16006 11.4332 4.03712C12.0192 4.91418 12.332 5.94533 12.332 7.00016C12.332 8.41465 11.7701 9.77121 10.7699 10.7714C9.76974 11.7716 8.41319 12.3335 6.9987 12.3335V12.3335Z" fill="#8F8F8F"/>
    </svg>
    